<svg xmlns="http://www.w3.org/2000/svg" viewBox="0 0 57.44 90.5">
    <g data-name="Navi Start">
        <path d="M32.28,81.09l-.67.46a7,7,0,0,0-.69.52,2.12,2.12,0,0,0-.48.59,1,1,0,0,0-.08.68l0,.13,0,.13,0,.12.05.12c-.16.23-.29.47-.42.69a4.47,4.47,0,0,1-.4.61,1.52,1.52,0,0,1-.52.42,1.6,1.6,0,0,1-.75.13,3.26,3.26,0,0,1-.87-.16,4.34,4.34,0,0,1-.81-.36,7,7,0,0,1-.76-.5c-.25-.18-.49-.38-.73-.59l0-.09,0-.09,0-.09,0-.09a2.52,2.52,0,0,0-.3-.61,3.17,3.17,0,0,0-.44-.51,5,5,0,0,0-.53-.42c-.19-.13-.38-.25-.57-.36v.07l0,.11,0,.11,0,.11,0,.11A6.4,6.4,0,0,0,24.35,84a6.84,6.84,0,0,0,1.22,1.31,6.26,6.26,0,0,0,1.48.91,4.89,4.89,0,0,0,1.66.41,3.56,3.56,0,0,0,1.61-.27,3.5,3.5,0,0,0,1.3-1,3.92,3.92,0,0,0,.79-1.59,4.63,4.63,0,0,0,0-2l-.15-.61"/>
        <path d="M9.55,52.67l-.18.08-.18.09-.18.1-.17.11c-.32.21-.62.42-.9.64a6.63,6.63,0,0,0-.78.72,6,6,0,0,0-.69.91,8.24,8.24,0,0,0-.62,1.2,6,6,0,0,1,1.66,0,7.15,7.15,0,0,1,1.7.46A9.91,9.91,0,0,1,11,57.9a14.08,14.08,0,0,1,1.75,1.37L10.38,52.4l-.21.05-.21.06-.21.07-.2.09"/>
        <path d="M11.43,52.29,13.72,59l5.07.07a21.21,21.21,0,0,0-1.7-2.85,13.5,13.5,0,0,0-1.84-2.1,7.88,7.88,0,0,0-1.9-1.32,4.89,4.89,0,0,0-1.9-.49"/>
        <path d="M14.44 61.1a27.93 27.93 0 0 1 2.29 3.15 39.77 39.77 0 0 1 2.16 3.93c.69 1.44 1.35 3 2 4.65s1.18 3.45 1.69 5.31c0-.81 0-1.65 0-2.5s-.06-1.71-.13-2.59-.17-1.76-.29-2.64-.28-1.78-.46-2.67q-.19-.9-.4-1.75c-.14-.57-.3-1.13-.46-1.67s-.33-1.07-.51-1.58-.36-1-.55-1.48l-5.34-.17"/>
        <path d="M3,11.83q.22,2.06.49,4.17T4,20.27q.33,2.16.71,4.36t.82,4.44q.57,2.93,1.2,5.73T8.09,40.3Q8.78,43,9.52,45.52T11,50.43a4.34,4.34,0,0,1,.68-.05,4.63,4.63,0,0,1,.69.06,4.8,4.8,0,0,1,.7.17,5.7,5.7,0,0,1,.7.28Q13,49,12.25,47t-1.5-4.08Q10,40.85,9.31,38.68T8,34.26q-.86-2.94-1.6-5.84T5,22.72q-.62-2.81-1.13-5.54T3,11.83"/>
        <path d="M48.13,40.41l-.89.17-.89.2-.88.24-.87.28-1,8.49a38.08,38.08,0,0,1,3-3,35.17,35.17,0,0,1,3.19-2.57,32.62,32.62,0,0,1,3.34-2.09,30.62,30.62,0,0,1,3.45-1.61,12.4,12.4,0,0,0-2-.44,13.69,13.69,0,0,0-2-.12c-.67,0-1.36.06-2.08.14s-1.48.19-2.29.32h-.15"/>
        <path d="M40.88,53.31,28.55,59.43q-.25,1-.42,2.07t-.25,2.13c-.05.72-.08,1.44-.07,2.17s.05,1.47.13,2.2a24.16,24.16,0,0,0,.55,3.21,22.68,22.68,0,0,0,1,3A21.7,21.7,0,0,0,30.78,77a20.86,20.86,0,0,0,1.68,2.5A48.49,48.49,0,0,1,35,65a47,47,0,0,1,2.62-6.26,44,44,0,0,1,3.29-5.47"/>
        <path d="M37.16,1.89a47.15,47.15,0,0,1,1,4.76c.27,1.67.47,3.4.62,5.19s.26,3.7.33,5.65.12,4,.16,6.14a58.35,58.35,0,0,1-.93,12.18,35.82,35.82,0,0,1-2.66,8.35,64.86,64.86,0,0,1-3.28,6,24.13,24.13,0,0,0-2.58,5.5l-.06.15-.06.15-.06.15-.06.15L41.22,50.6h0c.6-3.74,1-7.24,1.19-10.51s.26-6.15.2-8.91-.22-5.21-.45-7.53-.51-4.36-.83-6.25c-.24-1.43-.51-2.83-.81-4.2s-.62-2.68-1-4-.73-2.54-1.13-3.76S37.61,3,37.16,1.89"/>
        <path d="m0 0h57.44v90.5h-57.44z"/>
    </g>
</svg>