<svg xmlns="http://www.w3.org/2000/svg" viewBox="0 0 49.98 50.59"><g fill="currentColor" transform="translate(-487.27-1196.39)"><path d="m512 1204c.49-.87 2-.85 3.46 0 1.41.83 2.26 2.21 1.91 3.14-.37 1-1.92 1.08-3.46.2-1.56-.95-2.41-2.47-1.91-3.34"/><path d="m514.31 1201.27c.3-.56 1.36-.51 2.36.1 1 .6 1.6 1.55 1.37 2.14-.24.61-1.3.62-2.36 0-1.07-.64-1.68-1.65-1.37-2.24"/><path d="m515.83 1199.33c.2-.39 1-.33 1.72.13a1.68 1.68 0 0 1 1 1.56c-.17.42-.94.39-1.72-.09-.75-.46-1.21-1.19-1-1.6"/><path d="M520.47 1206.77a4.38 4.38 0 0 1 3.38 2c.8 1.2.61 2.33-.49 2.5a4.25 4.25 0 0 1 -3.61 -2.09C519 1207.9 519.31 1206.83 520.47 1206.77"/><path d="M524.71 1207a3.18 3.18 0 0 1 2.37 1.44c.6.86.53 1.64-.2 1.74a3.11 3.11 0 0 1 -2.48 -1.48C523.8 1207.82 524 1207.06 524.71 1207"/><path d="M527.75 1207.13a2.45 2.45 0 0 1 1.77 1.08c.47.65.45 1.23-.06 1.29a2.38 2.38 0 0 1 -1.83 -1.11C527.16 1207.73 527.22 1207.16 527.75 1207.13"/><path d="M527 1213.23a4.39 4.39 0 0 1 2.28 3.43c-.06 1.21-1.27 1.6-2.72.79-1.47-.82-2.52-2.49-2.33-3.66C524.38 1212.67 525.63 1212.45 527 1213.23"/><path d="M531.82 1216.51a3.74 3.74 0 0 1 1.83 2.65c0 1-.76 1.28-1.81.7a3.63 3.63 0 0 1 -1.86 -2.79C530 1216.18 530.83 1215.94 531.82 1216.51"/><path d="M535.73 1219.08a3.23 3.23 0 0 1 1.51 2.12c.09.77-.48 1.06-1.27.61a3.17 3.17 0 0 1 -1.53 -2.21C534.39 1218.87 535 1218.65 535.73 1219.08"/><path d="m529.23 1221.46c1 1.61 1 3.39-.17 3.94-1.22.59-3.14-.4-4.2-2.2-1-1.74-.78-3.46.48-3.86 1.19-.39 2.9.55 3.89 2.12"/><path d="m532.77 1228c.88 1.39.94 3 .08 3.58-.9.61-2.41-.14-3.31-1.66-.88-1.49-.81-3.07.12-3.54.88-.48 2.25.24 3.11 1.62"/><path d="m536.16 1234c.77 1.23.9 2.71.24 3.3-.68.62-1.91 0-2.7-1.3-.78-1.3-.81-2.77-.11-3.28.67-.45 1.81.12 2.57 1.28"/><path d="m524.49 1228c-.24 2-2 2.94-4 2a5.1 5.1 0 0 1 -2.8 -5.39c.46-1.81 2.28-2.43 4.06-1.51a5.26 5.26 0 0 1 2.74 4.9"/><path d="m522.63 1235.75c-.26 2-1.88 3-3.63 2.28a4.58 4.58 0 0 1 -2.39 -5 2.51 2.51 0 0 1 3.65 -1.87 4.62 4.62 0 0 1 2.37 4.59"/><path d="m520.78 1244.22c-.29 2-1.8 3.21-3.38 2.59-1.61-.63-2.55-2.85-2.11-4.85.42-1.89 1.94-2.84 3.39-2.22a4.27 4.27 0 0 1 2.1 4.48"/><path d="M512.87 1226.64a4.72 4.72 0 0 1 -5.72 -2.74 3.35 3.35 0 0 1 2.16 -4.83 4.84 4.84 0 0 1 5.17 2.61A3.42 3.42 0 0 1 512.87 1226.64"/><path d="M503.81 1228.79a4 4 0 0 1 -5.16 -2.32 3.41 3.41 0 0 1 2.55 -4.43 4.07 4.07 0 0 1 4.71 2.23A3.39 3.39 0 0 1 503.81 1228.79"/><path d="m494.3 1231.27c-2.11.73-4.32-.18-4.81-2-.48-1.79.89-3.65 2.94-4.19a3.57 3.57 0 0 1 4.42 2 3.55 3.55 0 0 1 -2.55 4.19"/><path d="m503.59 1216.43c-2.21-1.12-3.12-3.32-2.06-4.81 1-1.39 3.33-1.6 5.26-.57 1.89 1 2.85 3 2.13 4.42-.78 1.53-3.16 2.05-5.33.96"/><path d="m495.67 1211.49c-1.79-.91-2.38-2.57-1.35-3.63 1-1 3-1.09 4.65-.24 1.58.84 2.22 2.34 1.42 3.4-.83 1.12-2.96 1.36-4.72.47"/><path d="m488.72 1207.32c-1.5-.77-1.89-2.06-.91-2.85a4.15 4.15 0 0 1 4.16 0c1.35.72 1.79 1.91 1 2.71-.87.82-2.77.89-4.25.14"/><path d="m504.55 1206.86c-.72-1.5.2-2.7 1.95-2.7a5.21 5.21 0 0 1 4.28 2.43 1.79 1.79 0 0 1 -1.58 2.83 5.09 5.09 0 0 1 -4.65 -2.56"/><path d="m502.74 1201.5c-.5-1 .21-1.77 1.52-1.69a4.15 4.15 0 0 1 3.18 1.85c.53 1 0 1.78-1.32 1.77a4.11 4.11 0 0 1 -3.38 -1.93"/><path d="m501.29 1197.55c-.37-.74.19-1.25 1.22-1.14a3.43 3.43 0 0 1 2.47 1.46c.39.72-.1 1.26-1.11 1.19a3.39 3.39 0 0 1 -2.58 -1.51"/></g></svg>